<svg width="24" height="24" xmlns="http://www.w3.org/2000/svg"><path d="m9.865 13.63-.016.015 1.467 1.478 5.178-5.246L15.028 8.4l-3.7 3.748-1.74-1.75-1.467 1.477 1.744 1.754ZM6.606 5.942c.707.1 1.443.023 2.206-.233.849-.285 1.663-.768 2.442-1.448.39-.34.969-.344 1.363-.01.841.713 1.647 1.2 2.417 1.458a4.815 4.815 0 0 0 2.28.188c.51-.077.999.23 1.153.72.805 2.569.698 5.052-.322 7.45-.986 2.316-2.67 4.193-5.055 5.628a2.09 2.09 0 0 1-2.253-.063c-2.6-1.77-4.311-3.624-5.136-5.563-.837-1.968-.925-4.41-.262-7.325.121-.53.629-.88 1.167-.802Z" fill="#EC0044" fill-rule="evenodd"/></svg>